{
	"asset":{
		"generator":"Khronos glTF Blender I/O v5.0.21",
		"version":"2.0"
	},
	"scene":0,
	"scenes":[
		{
			"name":"Scene",
			"nodes":[
				0
			]
		}
	],
	"nodes":[
		{
			"mesh":0,
			"name":"chocolate donuts with decorations"
		}
	],
	"materials":[
		{
			"doubleSided":true,
			"name":"chocolate donuts with decorations",
			"pbrMetallicRoughness":{
				"baseColorTexture":{
					"index":0
				},
				"metallicFactor":0,
				"roughnessFactor":0.8999999761581421
			}
		}
	],
	"meshes":[
		{
			"name":"chocolate donuts with decorations",
			"primitives":[
				{
					"attributes":{
						"POSITION":0,
						"NORMAL":1,
						"TEXCOORD_0":2
					},
					"indices":3,
					"material":0
				}
			]
		}
	],
	"textures":[
		{
			"sampler":0,
			"source":0
		}
	],
	"images":[
		{
			"mimeType":"image/jpeg",
			"name":"donutpastry3dmodel_basecolor",
			"uri":"donutpastry3dmodel_basecolor.jpg"
		}
	],
	"accessors":[
		{
			"bufferView":0,
			"componentType":5126,
			"count":71778,
			"max":[
				0.4999898374080658,
				0.23296380043029785,
				0.4999794065952301
			],
			"min":[
				-0.4999404549598694,
				-0.22770777344703674,
				-0.4999207556247711
			],
			"type":"VEC3"
		},
		{
			"bufferView":1,
			"componentType":5126,
			"count":71778,
			"type":"VEC3"
		},
		{
			"bufferView":2,
			"componentType":5126,
			"count":71778,
			"type":"VEC2"
		},
		{
			"bufferView":3,
			"componentType":5125,
			"count":288306,
			"type":"SCALAR"
		}
	],
	"bufferViews":[
		{
			"buffer":0,
			"byteLength":861336,
			"byteOffset":0,
			"target":34962
		},
		{
			"buffer":0,
			"byteLength":861336,
			"byteOffset":861336,
			"target":34962
		},
		{
			"buffer":0,
			"byteLength":574224,
			"byteOffset":1722672,
			"target":34962
		},
		{
			"buffer":0,
			"byteLength":1153224,
			"byteOffset":2296896,
			"target":34963
		}
	],
	"samplers":[
		{
			"magFilter":9729,
			"minFilter":9987
		}
	],
	"buffers":[
		{
			"byteLength":3450120,
			"uri":"chocolate%20donuts%20with%20decorations.bin"
		}
	]
}
